<svg width="41" height="41" viewBox="0 0 41 41" fill="none" xmlns="http://www.w3.org/2000/svg">
<path d="M22.2562 3.41699C24.178 3.42212 25.1535 3.43237 25.9957 3.45628L26.3271 3.46824C26.7098 3.48191 27.0873 3.49899 27.5434 3.51949C29.3611 3.60491 30.6014 3.89191 31.6896 4.31387C32.8171 4.74778 33.7669 5.33545 34.7167 6.28358C35.5858 7.13729 36.258 8.17038 36.6864 9.31074C37.1084 10.399 37.3954 11.6392 37.4808 13.4586C37.5013 13.913 37.5184 14.2905 37.5321 14.6749L37.5423 15.0063C37.5679 15.8468 37.5782 16.8223 37.5816 18.7442L37.5833 20.0186V22.2565C37.5875 23.5026 37.5744 24.7486 37.544 25.9943L37.5338 26.3257C37.5201 26.7101 37.503 27.0877 37.4825 27.5421C37.3971 29.3615 37.1067 30.6 36.6864 31.6899C36.258 32.8303 35.5858 33.8634 34.7167 34.7171C33.863 35.5861 32.8299 36.2583 31.6896 36.6868C30.6014 37.1087 29.3611 37.3957 27.5434 37.4812L26.3271 37.5324L25.9957 37.5427C25.1535 37.5666 24.178 37.5785 22.2562 37.582L20.9817 37.5837H18.7455C17.4989 37.5881 16.2523 37.575 15.006 37.5444L14.6746 37.5341C14.269 37.5188 13.8636 37.5011 13.4582 37.4812C11.6406 37.3957 10.4003 37.1087 9.3104 36.6868C8.17065 36.2581 7.13816 35.5859 6.28494 34.7171C5.41531 33.8635 4.7425 32.8304 4.31353 31.6899C3.89157 30.6017 3.60457 29.3615 3.51915 27.5421L3.4679 26.3257L3.45936 25.9943C3.42787 24.7486 3.41363 23.5026 3.41665 22.2565V18.7442C3.41192 17.4981 3.42445 16.252 3.45424 15.0063L3.46619 14.6749C3.47986 14.2905 3.49694 13.913 3.51744 13.4586C3.60286 11.6392 3.88986 10.4007 4.31182 9.31074C4.7418 8.16991 5.41578 7.13678 6.28665 6.28358C7.13937 5.41497 8.17126 4.74278 9.3104 4.31387C10.4003 3.89191 11.6389 3.60491 13.4582 3.51949C13.9127 3.49899 14.2919 3.48191 14.6746 3.46824L15.006 3.45799C16.2517 3.42764 17.4978 3.41454 18.7438 3.4187L22.2562 3.41699ZM20.5 11.9587C18.2346 11.9587 16.062 12.8586 14.4601 14.4605C12.8582 16.0623 11.9583 18.2349 11.9583 20.5003C11.9583 22.7657 12.8582 24.9383 14.4601 26.5402C16.062 28.1421 18.2346 29.042 20.5 29.042C22.7654 29.042 24.938 28.1421 26.5399 26.5402C28.1417 24.9383 29.0417 22.7657 29.0417 20.5003C29.0417 18.2349 28.1417 16.0623 26.5399 14.4605C24.938 12.8586 22.7654 11.9587 20.5 11.9587ZM20.5 15.3753C21.173 15.3752 21.8395 15.5077 22.4613 15.7651C23.0831 16.0226 23.6482 16.4 24.1242 16.8758C24.6001 17.3516 24.9777 17.9165 25.2354 18.5383C25.4931 19.16 25.6257 19.8264 25.6258 20.4995C25.6259 21.1725 25.4935 21.839 25.236 22.4608C24.9786 23.0826 24.6012 23.6477 24.1254 24.1236C23.6495 24.5996 23.0846 24.9772 22.4629 25.2349C21.8411 25.4925 21.1747 25.6252 20.5017 25.6253C19.1425 25.6253 17.8389 25.0854 16.8778 24.1242C15.9166 23.1631 15.3767 21.8596 15.3767 20.5003C15.3767 19.1411 15.9166 17.8375 16.8778 16.8764C17.8389 15.9153 19.1425 15.3753 20.5017 15.3753M29.4704 9.39616C28.9041 9.39616 28.3609 9.62114 27.9605 10.0216C27.56 10.4221 27.335 10.9652 27.335 11.5316C27.335 12.0979 27.56 12.6411 27.9605 13.0415C28.3609 13.442 28.9041 13.667 29.4704 13.667C30.0368 13.667 30.5799 13.442 30.9804 13.0415C31.3809 12.6411 31.6059 12.0979 31.6059 11.5316C31.6059 10.9652 31.3809 10.4221 30.9804 10.0216C30.5799 9.62114 30.0368 9.39616 29.4704 9.39616Z" fill="white"/>
</svg>
