<svg width="38" height="38" viewBox="0 0 38 38" fill="none" xmlns="http://www.w3.org/2000/svg">
<path d="M25.2399 28.4414C25.6041 25.4663 23.6883 23.5695 18.6295 21.9545C16.1785 21.1185 15.0243 20.0228 15.0512 18.5171C15.1541 16.8451 16.7105 15.6275 18.7752 15.5879C20.4011 15.6055 21.987 16.095 23.3399 16.9971C23.5236 17.1111 23.6518 17.0921 23.7563 16.9337C23.8988 16.7057 24.2551 16.1532 24.3738 15.9521C24.4546 15.8254 24.4704 15.6576 24.2662 15.5087C23.9733 15.2918 23.1515 14.8517 22.7098 14.6664C21.4517 14.134 20.1001 13.8573 18.734 13.8526C15.7098 13.8652 13.3301 15.7763 13.129 18.3271C13.0002 20.1701 13.9133 21.6621 15.8682 22.8032C16.2846 23.0438 18.5282 23.9368 19.4212 24.2155C22.23 25.0895 23.6883 26.657 23.3447 28.4857C23.0328 30.1435 21.2879 31.2154 18.8828 31.2471C16.9781 31.1742 15.2618 30.3968 13.9318 29.3629L13.7085 29.1887C13.5438 29.0621 13.3633 29.07 13.2541 29.2362C13.1749 29.3582 12.6588 30.1023 12.5289 30.2971C12.407 30.4681 12.4735 30.5631 12.6002 30.6676C13.1543 31.1315 13.8938 31.6382 14.3957 31.8947C15.7859 32.6031 17.3153 32.9961 18.8749 33.0457C19.9977 33.0991 21.1187 32.9079 22.1603 32.4852C23.8941 31.749 25.0151 30.2781 25.2399 28.4414ZM19 2.21825C15.7257 2.21825 13.0562 5.30575 12.9311 9.16908H25.0673C24.9391 5.30417 22.2712 2.21667 19 2.21667M31.4308 37.9968L31.3041 37.9984L6.31275 37.9952C4.61225 37.9319 3.363 36.5544 3.192 34.8428L3.17617 34.5341L2.05675 9.95125C2.04941 9.85249 2.06229 9.75328 2.0946 9.65967C2.12691 9.56606 2.17796 9.48002 2.24465 9.40681C2.31134 9.3336 2.39226 9.27477 2.48245 9.23389C2.57265 9.19302 2.67024 9.17096 2.76925 9.16908H10.6463C10.8379 4.066 14.5033 0 19 0C23.4967 0 27.1589 4.06758 27.3521 9.1675H35.2181C35.3166 9.1678 35.414 9.1881 35.5045 9.22714C35.595 9.26619 35.6765 9.32319 35.7443 9.39468C35.8121 9.46617 35.8647 9.55067 35.8989 9.64307C35.9331 9.73547 35.9482 9.83385 35.9433 9.93225L34.7193 34.6132L34.7083 34.8207C34.5594 36.5528 33.1582 37.9509 31.4308 37.9968Z" fill="white"/>
</svg>
