<svg width="21" height="22" viewBox="0 0 21 22" fill="none" xmlns="http://www.w3.org/2000/svg">
<path fill-rule="evenodd" clip-rule="evenodd" d="M10.5 0.349609C5.20712 0.349609 0.916656 4.64007 0.916656 9.93294C0.916656 11.7442 1.41978 13.4404 2.29474 14.8856L1.43991 17.7913C1.39083 17.9581 1.3876 18.1351 1.43056 18.3036C1.47352 18.4721 1.56109 18.6259 1.68405 18.7489C1.80702 18.8718 1.96084 18.9594 2.12935 19.0024C2.29786 19.0453 2.47483 19.0421 2.64166 18.993L5.54732 18.1382C7.04111 19.0419 8.75414 19.5185 10.5 19.5163C15.7929 19.5163 20.0833 15.2258 20.0833 9.93294C20.0833 4.64007 15.7929 0.349609 10.5 0.349609ZM8.33224 12.1017C10.2709 14.0394 12.1215 14.2953 12.7751 14.3192C13.7689 14.3557 14.7368 13.5967 15.1134 12.7159C15.1606 12.6063 15.1776 12.4861 15.1628 12.3676C15.1479 12.2492 15.1018 12.1369 15.0291 12.0422C14.5039 11.3714 13.7938 10.8894 13.0999 10.4102C12.9552 10.3098 12.7771 10.2695 12.6032 10.2977C12.4292 10.326 12.2731 10.4206 12.1675 10.5616L11.5925 11.4385C11.5621 11.4854 11.515 11.5191 11.4607 11.5326C11.4065 11.5461 11.3491 11.5385 11.3002 11.5113C10.9102 11.288 10.3419 10.9085 9.93362 10.5003C9.52537 10.092 9.16887 9.54961 8.96857 9.18449C8.94434 9.13796 8.9375 9.08433 8.94927 9.03321C8.96103 8.9821 8.99065 8.93685 9.03278 8.90561L9.91828 8.24819C10.045 8.13855 10.1268 7.986 10.1481 7.81977C10.1693 7.65354 10.1284 7.48532 10.0333 7.34736C9.60395 6.71869 9.1037 5.91944 8.37824 5.38948C8.28442 5.32207 8.17477 5.28004 8.05993 5.26744C7.94509 5.25485 7.82894 5.27213 7.72274 5.31761C6.84107 5.69519 6.07824 6.66311 6.11466 7.65882C6.13861 8.3124 6.39449 10.1629 8.33224 12.1017Z" fill="#4EA526"/>
</svg>
