<svg width="43" height="43" viewBox="0 0 43 43" fill="none" xmlns="http://www.w3.org/2000/svg">
<path fill-rule="evenodd" clip-rule="evenodd" d="M21.5 3.58301C11.6046 3.58301 3.58331 11.6043 3.58331 21.4997C3.58331 24.8859 4.52394 28.0572 6.15973 30.759L4.56156 36.1913C4.4698 36.5032 4.46376 36.8341 4.54408 37.1491C4.6244 37.4642 4.78812 37.7518 5.01801 37.9816C5.2479 38.2115 5.53548 38.3753 5.85052 38.4556C6.16556 38.5359 6.49641 38.5299 6.80831 38.4381L12.2406 36.8399C15.0334 38.5294 18.236 39.4205 21.5 39.4163C31.3954 39.4163 39.4166 31.395 39.4166 21.4997C39.4166 11.6043 31.3954 3.58301 21.5 3.58301ZM17.4472 25.5542C21.0718 29.177 24.5315 29.6553 25.7534 29.7001C27.6114 29.7682 29.4209 28.3492 30.1251 26.7027C30.2132 26.4977 30.2451 26.2729 30.2173 26.0515C30.1896 25.8301 30.1033 25.6201 29.9674 25.4431C28.9856 24.189 27.6579 23.2878 26.3608 22.3919C26.0901 22.2042 25.7571 22.1288 25.432 22.1816C25.1069 22.2344 24.8149 22.4113 24.6175 22.675L23.5425 24.3144C23.4857 24.4022 23.3976 24.4651 23.2961 24.4904C23.1947 24.5157 23.0874 24.5014 22.996 24.4506C22.2668 24.0331 21.2044 23.3236 20.4411 22.5603C19.6779 21.7971 19.0114 20.783 18.6369 20.1004C18.5916 20.0134 18.5788 19.9131 18.6008 19.8176C18.6228 19.722 18.6782 19.6374 18.7569 19.579L20.4124 18.3499C20.6494 18.1449 20.8024 17.8597 20.842 17.549C20.8817 17.2382 20.8053 16.9237 20.6274 16.6658C19.8248 15.4904 18.8895 13.9962 17.5332 13.0054C17.3578 12.8794 17.1528 12.8008 16.9381 12.7772C16.7234 12.7537 16.5063 12.786 16.3077 12.871C14.6594 13.5769 13.2332 15.3865 13.3013 17.248C13.3461 18.47 13.8245 21.9297 17.4472 25.5542Z" fill="white"/>
</svg>
